# xmcd CD database file
#
# Track frame offsets:
#	150
#	1955
#	48582
#	100731
#	185889
#
# Disc length: 2833 seconds
#
# Revision: 0
# Processed by: cddbd v1.5.2PL0 Copyright (c) Steve Scherf et al.
# Submitted via: CDex 2.21
#
DISCID=3b0b0f05
DTITLE=Jazz Explosion Superband - BERKLEE 1988 DISC-1 (early show)
DYEAR=1900
DGENRE=Jazz
TTITLE0=introduction
TTITLE1=Above and Below
TTITLE2=Pud Wud
TTITLE3=Goodbye Pork Pie Hat
TTITLE4=Tradition (bass solo)
EXTD=
EXTT0=
EXTT1=
EXTT2=
EXTT3=
EXTT4=
PLAYORDER=
